<svg xmlns="http://www.w3.org/2000/svg" width="50" height="51" viewBox="0 0 50 51" fill="none">
<g clip-path="url(#clip0_20_253)">
<path d="M2.34834 51C1.98141 50.8379 1.57779 50.7256 1.24755 50.5011C0.428082 49.9523 0.012231 49.1291 0.012231 48.1438C4.03961e-08 42.2817 -0.0122309 36.4197 0.012231 30.5576C0.012231 29.0359 1.03963 27.8261 2.5318 27.7762C4.80675 27.6889 7.0817 27.7513 9.35665 27.7762C9.9682 27.7762 10.4941 28.0631 10.91 28.4996C11.1057 28.6992 11.2524 28.7366 11.4971 28.5869C12.0841 28.2377 12.6957 27.9259 13.295 27.5767C14.934 26.6288 16.0714 25.2568 16.7074 23.4483C17.3924 21.515 18.0773 19.5818 18.7622 17.6486C19.1169 16.6632 19.4839 16.4637 20.4746 16.788C21.135 17 21.82 17.1996 22.4437 17.5114C23.569 18.0602 24.3885 18.9457 24.9144 20.0932C25.0612 20.405 25.2202 20.5297 25.5626 20.5172C27.8376 20.5048 30.1248 20.5172 32.3997 20.5048C32.9134 20.5048 33.3048 20.6669 33.6595 21.0411C34.6257 22.0514 35.6042 23.0492 36.6194 24.0844C36.7906 23.9222 36.9251 23.7975 37.0597 23.6603C37.9281 22.7872 38.7965 21.9017 39.6404 21.0161C39.9829 20.6544 40.362 20.5048 40.8635 20.5048C42.8327 20.5172 44.8019 20.5172 46.771 20.5048C47.725 20.5048 48.0553 20.1555 48.0553 19.1827C48.0553 13.8819 48.0553 8.59354 48.0553 3.29274C48.0553 2.31988 47.7128 1.98313 46.7588 1.98313C34.002 1.9956 21.2696 1.9956 8.52495 1.9956C7.57094 1.9956 7.22847 2.34483 7.22847 3.31768C7.22847 8.61849 7.22847 13.9068 7.22847 19.2076C7.22847 20.1805 7.57094 20.5172 8.52495 20.5297C8.9775 20.5297 9.44227 20.5172 9.89481 20.5297C10.5064 20.5547 10.9222 20.9538 10.9344 21.5026C10.9467 22.0638 10.5186 22.4879 9.88258 22.5128C9.35665 22.5253 8.84295 22.5253 8.31703 22.5128C6.51908 22.4879 5.28376 21.2282 5.27153 19.3947C5.25929 17.4241 5.27153 15.4409 5.27153 13.4703C5.27153 10.0778 5.27153 6.69773 5.27153 3.30521C5.28376 1.2223 6.48239 0 8.52495 0C21.1228 0 33.7206 0 46.3185 0C48.5201 0 49.1928 0.44901 50.0122 2.4945C50.0122 8.34409 50.0122 14.1812 50.0122 20.0308C49.1928 22.0763 48.5323 22.5253 46.3185 22.5253C44.6796 22.5253 43.0284 22.5378 41.3894 22.5128C41.0714 22.5128 40.8513 22.6126 40.6311 22.8371C39.6159 23.8973 38.5886 24.9325 37.5612 25.9677C36.8762 26.6537 36.3992 26.6662 35.7387 25.9802C34.6991 24.9325 33.6717 23.8599 32.6199 22.8247C32.4486 22.65 32.1551 22.5253 31.9105 22.5253C30.0391 22.5004 28.1678 22.5128 26.2965 22.5128C26.0396 22.5128 25.7828 22.5128 25.5259 22.5128C25.5749 22.5378 25.6115 22.5752 25.6605 22.6001C25.1712 24.2839 24.6698 25.9802 24.1683 27.7014C24.3518 27.7014 24.523 27.7014 24.7065 27.7014C27.0303 27.7014 29.3542 27.6889 31.6903 27.7014C33.5739 27.7139 34.9315 28.7117 35.3963 30.4578C35.6531 31.3932 35.5186 32.2913 35.066 33.1643C36.6316 33.788 37.5612 34.9105 37.5978 36.6192C37.6345 38.328 36.7172 39.4629 35.2373 40.1614C35.7877 41.2091 35.8733 42.2443 35.4819 43.3169C35.0783 44.4021 34.271 45.0756 33.2436 45.5121C33.8919 46.8092 33.8552 48.0565 33.1458 49.2539C32.5587 50.2392 31.6414 50.7256 30.5773 50.9751C25.6972 50.9751 20.817 50.9751 15.9247 50.9751C14.408 50.763 12.9525 50.3764 11.546 49.7777C11.4604 49.7403 11.2891 49.8026 11.228 49.8775C10.7632 50.5011 10.1027 50.788 9.38111 50.9751C7.03278 51 4.69667 51 2.34834 51ZM20.4134 18.8958C19.7896 20.642 19.1781 22.3507 18.5788 24.0594C17.8938 26.0301 16.7441 27.6515 15.0318 28.8114C14.1389 29.4226 13.1849 29.9215 12.2432 30.4329C11.9251 30.6075 11.8151 30.7946 11.8151 31.1563C11.8273 35.8335 11.8273 40.5231 11.8273 45.2003C11.8273 45.9486 11.8151 46.697 11.8395 47.4453C11.8395 47.5825 11.9496 47.7946 12.0719 47.8445C13.6619 48.5554 15.3131 49.0293 17.0744 49.0044C18.7011 48.9919 20.3278 49.0044 21.9545 49.0044C24.6208 49.0044 27.2872 49.0044 29.9658 49.0044C30.614 49.0044 31.1522 48.7799 31.5068 48.2186C32.1673 47.1709 31.5068 45.774 30.2838 45.7117C29.1096 45.6493 27.9354 45.6992 26.7735 45.6743C26.0763 45.6618 25.6849 45.2502 25.7094 44.6515C25.7339 44.0778 26.1252 43.7161 26.7979 43.7036C27.3361 43.6911 27.8743 43.7036 28.4124 43.7036C29.5866 43.7036 30.7608 43.7036 31.9227 43.7036C32.4364 43.7036 32.9379 43.6163 33.3048 43.2172C33.7818 42.7058 33.9408 42.0946 33.6717 41.4336C33.3904 40.7351 32.84 40.3859 32.1062 40.3859C30.4305 40.3734 28.7549 40.3859 27.0793 40.3859C26.1619 40.3859 25.7216 40.0741 25.7094 39.4131C25.6972 38.7271 26.1619 38.3903 27.0915 38.3903C29.3664 38.3903 31.6536 38.3903 33.9286 38.3903C34.4667 38.3903 34.9315 38.2406 35.2862 37.8291C35.7265 37.3052 35.8366 36.6941 35.5553 36.0704C35.274 35.4219 34.748 35.0851 34.0509 35.0851C31.7392 35.0851 29.4276 35.0851 27.1159 35.0851C26.8958 35.0851 26.6634 35.0726 26.4432 35.0227C25.7828 34.8481 25.5137 34.0873 25.8929 33.526C26.1375 33.1643 26.4922 33.102 26.8836 33.102C28.4613 33.102 30.0391 33.102 31.6169 33.102C31.8738 33.102 32.1429 33.0895 32.3875 33.0271C33.1947 32.8276 33.7084 32.0169 33.5739 31.1687C33.4271 30.2707 32.7666 29.7594 31.7392 29.7594C28.8894 29.7594 26.0396 29.7594 23.1898 29.7594C21.9545 29.7594 21.5998 29.2605 21.9912 28.0756C22.4437 26.7036 22.9085 25.3441 23.3366 23.9721C24.0338 21.5649 22.774 19.3448 20.4134 18.8958ZM6.88601 29.7095C6.88601 29.9839 6.88601 30.1959 6.88601 30.4079C6.88601 34.0748 6.88601 37.7417 6.88601 41.4087C6.88601 41.5583 6.88601 41.708 6.88601 41.8577C6.84931 42.5437 6.48239 42.9428 5.91976 42.9428C5.35714 42.9428 4.97798 42.5437 4.94129 41.8701C4.92906 41.708 4.94129 41.5334 4.94129 41.3712C4.94129 37.7043 4.94129 34.0374 4.94129 30.3705C4.94129 30.1585 4.94129 29.9464 4.94129 29.697C4.26859 29.697 3.66928 29.697 3.06996 29.697C2.25049 29.7095 1.95695 30.0088 1.95695 30.8569C1.95695 36.5194 1.95695 42.182 1.95695 47.8445C1.95695 48.7175 2.23826 49.0044 3.09442 49.0044C4.96575 49.0044 6.83708 49.0044 8.70841 49.0044C9.60127 49.0044 9.85812 48.73 9.85812 47.807C9.85812 44.8136 9.85812 41.8327 9.85812 38.8393C9.85812 36.1453 9.85812 33.4637 9.85812 30.7696C9.85812 30.0961 9.58904 29.7469 9.01419 29.7095C8.34149 29.6845 7.66879 29.7095 6.88601 29.7095Z" fill="white"/>
<path d="M40.3987 5.86207C41.0347 5.87454 41.475 6.18635 41.7686 6.73514C41.9887 7.15921 42.1722 7.60822 42.4168 8.01981C42.5024 8.16948 42.7103 8.31915 42.8816 8.35656C43.3097 8.45634 43.75 8.49376 44.1781 8.5686C44.8263 8.66838 45.2911 9.00513 45.5112 9.6537C45.7314 10.3023 45.5357 10.8635 45.0831 11.3375C44.7651 11.6742 44.4227 11.9736 44.1169 12.3228C44.0068 12.4475 43.9334 12.672 43.9457 12.8342C43.9946 13.3331 44.1169 13.8195 44.1658 14.3059C44.3004 15.6779 43.1262 16.526 41.8909 15.9398C41.4628 15.7403 41.0592 15.4784 40.6311 15.2788C40.4843 15.2164 40.2519 15.2164 40.1052 15.2788C39.6771 15.4784 39.2735 15.7153 38.8454 15.9398C38.2461 16.2516 37.6712 16.2018 37.1453 15.7902C36.6438 15.391 36.387 14.8173 36.5827 14.2062C36.9618 13.0088 36.7172 12.0983 35.6898 11.35C35.1516 10.9508 34.9926 10.3147 35.225 9.64123C35.4452 8.98019 35.9344 8.5686 36.6071 8.5686C37.818 8.58107 38.5396 8.03228 38.9065 6.85987C39.1267 6.2113 39.6771 5.8496 40.3987 5.86207ZM42.111 13.7946C41.6218 12.3852 42.0009 11.3001 43.1629 10.427C41.6707 10.4644 40.8023 9.75348 40.3742 8.34409C39.9584 9.7909 39.0411 10.4519 37.5734 10.4395C38.7965 11.2876 39.09 12.3852 38.6619 13.7821C39.8238 12.8965 40.9369 12.9215 42.111 13.7946Z" fill="white"/>
<path d="M11.7172 14.3433C11.7784 13.9692 11.8273 13.4453 11.9496 12.934C12.023 12.6221 11.9374 12.4351 11.7172 12.248C11.3992 11.9611 11.1057 11.6618 10.7999 11.35C10.3229 10.8635 10.1517 10.2773 10.3841 9.61628C10.6042 8.98018 11.0935 8.58106 11.7417 8.58106C12.9403 8.58106 13.6864 8.08216 14.0533 6.8848C14.2613 6.22376 14.7994 5.84959 15.5211 5.86206C16.2427 5.86206 16.7686 6.2487 16.9765 6.90975C17.3312 8.09463 18.0895 8.56859 19.2515 8.58106C19.9242 8.59353 20.4256 8.98018 20.6458 9.64122C20.8782 10.3147 20.7314 10.9758 20.1688 11.3874C19.1659 12.1232 18.9212 13.0088 19.2882 14.1937C19.4961 14.8298 19.2392 15.4534 18.6766 15.8525C18.1385 16.2516 17.5514 16.2392 16.9765 15.9398C16.4873 15.6904 15.9981 15.2414 15.4966 15.2414C15.0074 15.2414 14.5181 15.7028 14.0289 15.9523C12.8792 16.5011 11.705 15.7652 11.7172 14.3433ZM15.5944 8.40644C15.203 8.98018 14.9584 9.59133 14.5059 9.92809C14.0533 10.2648 13.3929 10.3272 12.7202 10.5392C13.98 11.3125 14.2123 12.4226 13.821 13.807C14.9829 12.8466 16.0959 12.9464 17.2578 13.7821C16.7808 12.3727 17.16 11.3001 18.3097 10.4395C16.842 10.4769 15.9614 9.77842 15.5944 8.40644Z" fill="white"/>
<path d="M29.9292 16.1269C29.6112 15.9648 29.0609 15.7528 28.5716 15.4534C28.1313 15.179 27.7644 15.1541 27.3363 15.4659C27.0428 15.6779 26.7125 15.8151 26.3945 15.9773C25.8074 16.2641 25.2448 16.2018 24.7433 15.8151C24.2541 15.4285 24.0706 14.8921 24.1563 14.2685C24.2174 13.807 24.3397 13.358 24.3764 12.8966C24.3886 12.697 24.3153 12.4475 24.193 12.2979C23.8994 11.9486 23.5447 11.6493 23.2267 11.3125C22.7742 10.8511 22.6274 10.2898 22.8231 9.66618C23.0188 9.01761 23.4958 8.59354 24.144 8.58107C25.3793 8.5686 26.1499 8.08217 26.5291 6.84739C26.7247 6.2113 27.2629 5.8496 27.9601 5.86207C28.6572 5.86207 29.1954 6.2113 29.4033 6.84739C29.7825 8.08217 30.5653 8.58107 31.7883 8.58107C32.4121 8.58107 32.8769 8.99266 33.0971 9.61629C33.3172 10.2524 33.1582 10.8261 32.7057 11.3125C32.3754 11.6618 32.0207 11.9736 31.7027 12.3353C31.5927 12.46 31.5315 12.6845 31.5437 12.8467C31.5927 13.4204 31.7394 13.9941 31.7639 14.5679C31.7883 15.4659 31.0545 16.1643 29.9292 16.1269ZM29.5746 13.7946C29.5746 13.0961 29.44 12.4475 29.6112 11.8988C29.7825 11.3624 30.2839 10.9259 30.6019 10.4894C30.0638 10.3147 29.4033 10.2524 28.9508 9.91563C28.4982 9.57887 28.2536 8.95524 27.9356 8.49376C27.6298 8.95524 27.3852 9.57887 26.9327 9.90315C26.4679 10.2524 25.8074 10.3023 25.1225 10.5268C26.3823 11.2751 26.6269 12.3852 26.2233 13.7696C27.4097 12.8966 28.5227 12.9215 29.5746 13.7946Z" fill="white"/>
<path d="M15.0685 21.54C15.0563 22.0763 14.6037 22.5253 14.09 22.5004C13.5641 22.4879 13.1482 22.0264 13.1605 21.4901C13.1727 20.9538 13.6253 20.5048 14.139 20.5297C14.6649 20.5422 15.0807 21.0037 15.0685 21.54Z" fill="white"/>
<path d="M5.91975 44.5642C6.44567 44.5767 6.86153 45.0132 6.87376 45.562C6.87376 46.1233 6.43344 46.5598 5.88305 46.5473C5.34489 46.5349 4.9535 46.0859 4.96573 45.5371C4.96573 45.0008 5.40605 44.5642 5.91975 44.5642Z" fill="white"/>
</g>
<defs>
<clipPath id="clip0_20_253">
<rect width="50" height="51" fill="white"/>
</clipPath>
</defs>
</svg>