<svg xmlns="http://www.w3.org/2000/svg" width="55" height="55" viewBox="0 0 55 55" fill="none">
<g clip-path="url(#clip0_20_249)">
<path d="M26.539 55C25.6066 54.7129 24.6311 54.512 23.756 54.1101C21.6616 53.1485 20.2271 51.5266 19.4094 49.3737C19.266 49.0005 19.0795 48.9 18.7065 48.9C16.3108 48.9144 13.9151 48.9144 11.5195 48.9C10.6731 48.9 10.4292 48.656 10.4292 47.8236C10.4292 46.4601 10.4292 45.1109 10.4292 43.69C10.1854 43.69 9.99887 43.69 9.81238 43.69C6.94332 43.69 4.08859 43.69 1.21953 43.69C0.244046 43.69 0.0145204 43.4603 0.0145204 42.4843C0.0145204 41.8097 0.000175105 41.1208 0.0145204 40.4462C0.0288658 39.9008 0.330118 39.542 0.789168 39.5276C1.26256 39.5133 1.60685 39.8865 1.6212 40.4462C1.63554 40.9486 1.63554 41.4509 1.63554 41.9533C1.63554 41.9676 1.64989 41.982 1.67858 42.0394C2.8549 42.0394 4.03121 42.0394 5.27926 42.0394C5.27926 41.1782 5.27926 40.3458 5.27926 39.5133C5.27926 39.054 5.48009 38.7095 5.95349 38.6234C6.45557 38.5229 6.87159 38.8818 6.87159 39.4702C6.88593 40.3171 6.87159 41.1495 6.87159 42.0394C8.04791 42.0394 9.19553 42.0394 10.4149 42.0394C10.4149 40.9773 10.4005 39.9295 10.4149 38.8818C10.4579 35.7529 12.495 32.9684 15.4644 32.0498C16.6264 31.691 17.8171 31.447 18.9934 31.1456C19.1368 31.1169 19.266 31.0595 19.4238 30.916C18.6635 30.6863 17.9175 30.4423 17.1572 30.2127C16.3969 29.983 15.6222 29.7534 14.8189 29.5094C14.2451 30.7294 13.327 31.4901 11.9498 31.4901C10.587 31.4901 9.66893 30.7724 9.08077 29.5237C8.44958 29.7103 7.80404 29.8969 7.1585 30.0978C6.41254 30.3275 5.65224 30.5428 4.90628 30.7868C2.91228 31.4614 1.64989 33.1837 1.6212 35.2792C1.6212 35.7242 1.64989 36.1834 1.60685 36.6284C1.57816 37.0733 1.3056 37.3604 0.832204 37.3747C0.373154 37.3891 0.0575564 37.1307 0.0145204 36.6858C-0.143278 34.5185 0.186664 32.5091 1.779 30.8729C2.55364 30.0835 3.48609 29.5237 4.54765 29.1936C5.98218 28.763 7.41671 28.3181 8.89428 27.8732C8.89428 27.4282 8.92297 26.9833 8.87994 26.5383C8.86559 26.3948 8.73648 26.2082 8.62172 26.1365C6.5273 24.773 5.52313 22.8353 5.56616 20.3523C5.59485 18.9601 5.48009 17.5391 5.68093 16.1756C6.03956 13.6782 7.51713 11.9702 9.89845 11.1521C12.2654 10.3484 14.4172 10.8651 16.2821 12.5156C16.3825 12.6018 16.4686 12.6879 16.5547 12.774C16.569 12.7883 16.5834 12.7883 16.6981 12.8027C16.6981 12.2142 16.7125 11.6258 16.6981 11.0517C16.6695 9.35802 16.9994 7.75051 17.7023 6.21476C19.7107 1.8802 24.3729 -0.602833 29.1355 0.114808C33.7261 0.803743 37.4415 4.52112 38.1157 9.14273C38.2592 10.1044 38.2161 11.1091 38.2592 12.0851C38.2735 12.3147 38.2592 12.5443 38.2592 12.8745C38.46 12.7022 38.5748 12.6161 38.6895 12.5156C40.7409 10.7215 43.0792 10.2766 45.5753 11.3531C48.0714 12.4439 49.3481 14.4676 49.3912 17.1947C49.4198 18.7161 49.4485 20.2518 49.2764 21.7445C49.0756 23.5673 48.0714 24.9739 46.5508 25.9786C46.1778 26.2226 46.0343 26.4809 46.063 26.9259C46.1061 27.8732 46.0774 27.8732 46.9955 28.1459C48.1575 28.4903 49.3338 28.8204 50.4814 29.208C52.9058 30.0261 54.3833 31.691 54.8854 34.2171C54.8998 34.3032 54.9428 34.375 54.9858 34.4611C54.9858 35.2505 54.9858 36.0399 54.9858 36.8293C54.7133 37.1881 54.412 37.4895 53.9099 37.3173C53.4222 37.1307 53.3505 36.7288 53.3648 36.2696C53.3792 35.9107 53.3792 35.5519 53.3648 35.1931C53.2787 33.3846 52.5184 31.9063 50.8687 31.16C49.2907 30.4423 47.5836 30.0261 45.9339 29.4663C44.8437 31.9924 41.4438 32.2938 40.1241 29.5237C38.6035 29.983 37.0829 30.4567 35.5479 30.916C36.423 31.2461 37.2837 31.5044 38.1588 31.6767C42.5771 32.5235 44.8006 35.9681 44.5711 39.7286C44.5281 40.4893 44.5711 41.2643 44.5711 42.0394C45.7761 42.0394 46.9238 42.0394 48.1144 42.0394C48.1144 41.1352 48.1001 40.274 48.1144 39.4272C48.1288 38.9535 48.43 38.6378 48.8747 38.6091C49.3194 38.5804 49.6781 38.9105 49.7211 39.3985C49.7354 39.6281 49.7211 39.8578 49.7211 40.1018C49.7211 40.7476 49.7211 41.4079 49.7211 42.0537C50.9835 42.0537 52.1598 42.0537 53.3792 42.0537C53.3792 41.5657 53.3935 41.0921 53.3792 40.6328C53.3648 40.1735 53.4365 39.7573 53.9243 39.5851C54.4264 39.3985 54.7276 39.6999 55.0002 40.0731C55.0002 41.1065 55.0002 42.1542 55.0002 43.1876C54.7133 43.6182 54.2973 43.7187 53.7952 43.7187C50.9261 43.7043 48.0714 43.7187 45.2023 43.7187C45.0158 43.7187 44.815 43.7187 44.5855 43.7187C44.5855 45.1396 44.5855 46.4888 44.5855 47.8523C44.5855 48.6847 44.3416 48.9287 43.4952 48.9287C41.1139 48.9287 38.7326 48.9431 36.3512 48.9144C35.9209 48.9144 35.7344 49.0292 35.5766 49.4311C34.5007 52.1294 32.5497 53.8948 29.7667 54.6986C29.3364 54.8278 28.906 54.8995 28.4757 55.0143C27.8301 55 27.1846 55 26.539 55ZM29.8672 37.9488C30.4123 38.1785 30.9574 38.3364 31.4165 38.6378C31.646 38.7813 31.8755 39.2119 31.8325 39.4559C31.7894 39.7142 31.4451 39.9726 31.1726 40.1018C31.0004 40.1735 30.6848 40.0443 30.4697 39.9439C29.2216 39.3554 27.9018 39.1832 26.539 39.3554C23.1392 39.8147 20.6288 42.6279 20.4423 46.1012C20.2845 49.3163 22.5797 52.3878 25.7357 53.1772C29.0351 54.0096 32.4493 52.4165 33.8695 49.3306C34.9597 46.9337 34.7446 44.6085 33.3244 42.3839C32.9801 41.8384 33.0231 41.3935 33.4535 41.1208C33.8695 40.8481 34.3429 40.9629 34.6585 41.5083C35.0315 42.1399 35.3758 42.7857 35.6483 43.4603C36.1217 44.666 36.2365 45.9577 36.1217 47.2782C36.7099 47.2782 37.2693 47.2782 37.8718 47.2782C37.8718 46.6323 37.9292 46.0151 37.8575 45.4123C37.7714 44.5942 38.0727 44.0057 38.6895 43.5034C39.1342 43.1302 39.5933 43.0584 39.9232 43.3885C40.2819 43.733 40.2388 44.2067 39.8228 44.666C39.6937 44.8095 39.5072 44.9674 39.5072 45.1252C39.4785 45.8285 39.4929 46.5462 39.4929 47.2782C40.6835 47.2782 41.8025 47.2782 42.9357 47.2782C42.9501 47.1777 42.9644 47.1346 42.9644 47.0772C42.9644 44.3502 42.9788 41.6375 42.9644 38.9105C42.9358 36.4131 41.2717 34.2315 38.8617 33.5425C37.7284 33.2268 36.5808 32.9684 35.4331 32.667C35.1175 32.5809 34.9597 32.667 34.8163 32.9684C34.2855 34.1166 33.7261 35.2649 33.1522 36.3987C32.6358 37.4178 31.5742 37.6905 30.6275 37.059C30.5414 37.0015 30.4553 36.9441 30.3406 36.8724C30.1684 37.2455 30.025 37.6044 29.8672 37.9488ZM21.8481 14.0657C22.6515 13.4055 23.5265 13.2046 24.459 13.2189C25.1332 13.2333 25.8218 13.2333 26.496 13.2189C28.074 13.2046 29.322 12.53 30.2258 11.2382C30.7135 10.535 31.2013 9.83167 31.7034 9.12838C32.0763 8.59732 32.5067 8.46815 32.9227 8.74085C33.3531 9.02791 33.3961 9.4872 33.0231 10.047C32.7793 10.4201 32.5067 10.779 32.2772 11.1665C32.2054 11.2813 32.1481 11.4679 32.1911 11.5971C32.435 12.3147 33.6256 13.2046 34.3859 13.2189C35.1319 13.2333 35.8778 13.2189 36.6668 13.2189C36.6668 12.3147 36.7099 11.31 36.6668 10.3197C36.3512 3.34419 28.5474 -0.732008 22.6371 3.01408C19.309 5.12394 17.6736 9.09967 18.3909 13.2333C19.1655 13.2333 19.9258 13.2476 20.7005 13.2333C21.2886 13.2046 21.7047 13.4055 21.8481 14.0657ZM18.893 47.2782C18.7208 45.1396 19.1799 43.2163 20.3562 41.4796C21.5325 39.7573 23.1535 38.6234 25.1619 37.9919C24.9897 37.59 24.8319 37.2312 24.6741 36.8724C23.34 37.7479 22.3932 37.5039 21.719 36.126C21.2169 35.0783 20.6861 34.0449 20.1984 32.9828C20.0406 32.6526 19.8685 32.5952 19.5385 32.6814C18.5774 32.9397 17.6019 33.1693 16.6264 33.399C13.7717 34.0736 12.0359 36.2552 12.0359 39.1975C12.0359 41.7093 12.0359 44.2067 12.0359 46.7184C12.0359 46.905 12.0359 47.0916 12.0359 47.2638C13.2409 47.2638 14.3599 47.2638 15.5362 47.2638C15.3784 46.2448 15.8805 45.1539 14.948 44.3071C14.8189 44.1923 14.8906 43.6469 15.0484 43.4603C15.2206 43.2737 15.6366 43.1733 15.8948 43.2307C16.4543 43.3455 17.1142 44.3502 17.1285 44.953C17.1285 45.7137 17.1285 46.4888 17.1285 47.2782C17.7453 47.2782 18.2905 47.2782 18.893 47.2782ZM30.9144 12.9893C29.738 14.0657 28.9347 14.5681 27.5576 14.7403C26.4817 14.8695 25.3771 14.8408 24.3012 14.8408C23.5265 14.8408 22.9527 15.1566 22.4937 15.8024C21.9916 16.5057 21.719 17.2234 21.8194 18.0845C21.8768 18.6012 21.8194 19.1179 21.8338 19.6346C21.9055 22.4765 24.1864 24.9308 26.9407 25.1461C30.0106 25.3758 32.7219 23.4238 33.0949 20.4815C33.3244 18.6156 33.1953 16.6923 33.224 14.7977C33.224 14.6973 33.1092 14.5537 33.0088 14.482C32.3059 13.994 31.6316 13.506 30.9144 12.9893ZM47.8562 18.9744C47.8419 18.9744 47.8275 18.9744 47.8132 18.9744C47.8132 18.3285 47.8275 17.6827 47.8132 17.0368C47.7558 14.525 45.7331 12.5013 43.2083 12.4295C40.6835 12.3578 38.503 14.238 38.3452 16.7497C38.2592 18.2137 38.2592 19.6921 38.3596 21.1417C38.503 23.4381 40.497 25.3184 42.7636 25.4475C45.1449 25.5911 47.2824 23.9692 47.6984 21.644C47.8562 20.7685 47.8132 19.8643 47.8562 18.9744ZM7.1585 18.9026C7.17284 18.9026 7.18719 18.9026 7.20153 18.9026C7.20153 19.5342 7.18719 20.1513 7.20153 20.7829C7.24457 23.309 9.25291 25.3758 11.749 25.4619C14.3025 25.548 16.5117 23.6247 16.6695 21.0699C16.7555 19.649 16.7555 18.1994 16.6695 16.7784C16.526 14.4533 14.5894 12.5874 12.3085 12.4582C9.85542 12.3147 7.74665 13.8792 7.31629 16.2474C7.1585 17.0942 7.20153 18.0128 7.1585 18.9026ZM33.8838 29.9256C34.6872 29.6242 35.3758 29.3228 36.0787 29.0931C37.1115 28.7487 38.1588 28.476 39.206 28.1315C40.1958 27.8157 39.9806 28.0741 40.038 27.0263C40.0667 26.524 39.9232 26.2082 39.4785 25.8925C37.8288 24.7586 36.9107 23.1511 36.7242 21.1417C36.6812 20.7398 36.6812 20.3379 36.6525 19.9504C36.0213 19.9935 35.4331 20.0365 34.845 20.0796C34.8306 20.1226 34.8019 20.18 34.7876 20.2231C34.7589 20.3523 34.7446 20.4671 34.7159 20.5963C34.5007 22.0172 34.013 23.3807 32.9227 24.285C31.8325 25.1748 31.6747 26.1939 31.7894 27.4139C31.8038 27.5143 31.7751 27.6292 31.7894 27.7296C31.8325 27.8732 31.8612 28.0454 31.9759 28.1459C32.6215 28.7917 33.2813 29.3802 33.8838 29.9256ZM18.3909 19.9791C18.3765 20.0222 18.3479 20.0509 18.3479 20.0796C18.3335 20.2375 18.3335 20.3953 18.3335 20.5676C18.2905 22.7779 17.4011 24.5864 15.5935 25.8781C15.1345 26.2082 14.8763 26.524 14.9767 27.0838C14.991 27.1699 14.991 27.2703 14.9767 27.3565C14.905 27.7583 15.0771 27.9306 15.4788 28.0597C17.3437 28.6626 19.2946 29.007 21.0591 29.983C21.4321 29.6386 21.7907 29.251 22.2067 28.964C23.0101 28.4042 23.3974 27.7009 23.2253 26.7106C23.1822 26.4379 23.1966 26.1365 23.2253 25.8494C23.254 25.5336 23.1392 25.3327 22.881 25.1318C21.676 24.1558 20.8726 22.9214 20.4566 21.4287C20.3419 20.9982 20.2701 20.5676 20.1841 20.1226C19.5959 20.0652 19.0077 20.0222 18.3909 19.9791ZM24.8319 26.2943C24.8319 27.6148 24.8319 28.8491 24.8463 30.0978C24.8463 30.227 24.9754 30.3849 25.0902 30.4567C25.7931 30.916 26.496 31.3609 27.2276 31.7771C27.3711 31.8632 27.6436 31.8632 27.7871 31.7771C28.5043 31.3752 29.1929 30.9303 29.8815 30.471C30.0106 30.3849 30.1684 30.2127 30.1684 30.0691C30.1971 28.8204 30.1828 27.5861 30.1828 26.28C28.3752 26.9402 26.6251 26.9402 24.8319 26.2943ZM23.1248 30.2988C22.6084 30.7581 22.092 31.2174 21.6042 31.7054C21.5325 31.7771 21.5182 32.0068 21.5756 32.1216C22.1494 33.3416 22.7519 34.5616 23.3687 35.8246C24.2725 34.8486 25.1475 33.9013 26.0226 32.9684C25.4918 32.6383 24.8606 32.2221 24.2151 31.8345C23.6413 31.4757 23.0388 31.16 23.1248 30.2988ZM31.6173 35.8677C32.2628 34.5329 32.851 33.3272 33.4391 32.1072C33.4822 32.0068 33.5252 31.8202 33.4822 31.7771C32.9657 31.2748 32.4206 30.7868 31.8755 30.2988C31.8898 31.0308 31.5456 31.404 31.0148 31.7054C30.2832 32.1216 29.5802 32.5952 28.9491 32.9971C29.8385 33.93 30.6848 34.863 31.6173 35.8677ZM27.658 33.9875C27.5576 34.0018 27.4715 34.0018 27.3711 34.0162C27.242 34.1884 27.1415 34.375 26.9981 34.5329C26.6538 34.8917 26.08 35.2075 26.0083 35.6093C25.9365 36.0399 26.3525 36.5423 26.496 37.0303C26.6395 37.5326 26.912 37.6905 27.4571 37.6905C28.0453 37.7048 28.3896 37.5613 28.5474 36.9728C28.6478 36.5997 28.863 36.2552 28.9921 35.882C29.0351 35.7529 29.0064 35.5376 28.9347 35.4227C28.5187 34.9491 28.0883 34.4755 27.658 33.9875ZM10.544 27.012C10.544 27.5574 10.5153 28.1028 10.5583 28.6482C10.6014 29.3084 11.1322 29.8108 11.7777 29.8826C12.4663 29.9543 13.1548 29.5955 13.284 28.9496C13.4131 28.3037 13.37 27.6292 13.3987 27.012C12.3945 27.012 11.5051 27.012 10.544 27.012ZM41.6734 26.9689C41.659 27.1268 41.6447 27.256 41.6447 27.3708C41.6447 27.8014 41.6303 28.232 41.6734 28.6626C41.7307 29.3659 42.2902 29.8682 42.9931 29.9113C43.6961 29.94 44.3416 29.5094 44.442 28.8204C44.5281 28.2176 44.4564 27.6005 44.4564 26.9833C43.9686 27.0263 43.5239 27.0838 43.0792 27.0838C42.6202 27.0694 42.1754 26.9976 41.6734 26.9689ZM20.1697 14.8408C19.8685 14.8408 19.6246 14.8408 19.3807 14.8408C18.6921 14.8695 18.3622 15.1853 18.3335 15.8598C18.3192 16.4053 18.3192 16.965 18.3335 17.5248C18.3622 18.0558 18.6635 18.3859 19.1942 18.4434C19.5098 18.4721 19.8254 18.4434 20.1554 18.4434C20.1697 17.2377 20.1697 16.0751 20.1697 14.8408ZM34.845 18.4434C35.2036 18.4434 35.5049 18.4721 35.8061 18.4434C36.3369 18.3859 36.6525 18.0702 36.6812 17.5391C36.7099 16.9507 36.6955 16.3622 36.6812 15.7737C36.6668 15.257 36.3656 14.9413 35.8635 14.8695C35.5336 14.8264 35.2036 14.8552 34.845 14.8552C34.845 16.0751 34.845 17.2234 34.845 18.4434Z" fill="white"/>
<path d="M27.5289 41.006C28.1314 41.0203 28.6622 41.25 28.8917 41.7954C29.3794 42.9292 30.1971 43.4603 31.4308 43.6469C32.6789 43.8478 33.1666 45.3836 32.2772 46.2735C31.4021 47.149 31.1152 48.0532 31.316 49.2732C31.5025 50.4501 30.2258 51.4261 29.1642 50.9094C28.0023 50.3353 27.0268 50.3497 25.8648 50.9094C24.7746 51.4405 23.4835 50.4501 23.6987 49.2445C23.9138 48.0245 23.5983 47.1633 22.7519 46.3022C21.8481 45.3836 22.3502 43.8622 23.6269 43.6469C24.8033 43.4603 25.6066 42.9723 26.08 41.8528C26.3239 41.2643 26.8833 40.9916 27.5289 41.006ZM25.2623 49.4598C26.7686 48.4407 28.2318 48.4407 29.652 49.4885C29.652 48.5986 29.4798 47.7805 29.695 47.0916C29.9245 46.4026 30.5557 45.8285 31.0865 45.0965C29.236 45.1539 28.1457 44.221 27.4715 42.5848C26.869 44.3215 25.664 45.1109 23.8852 45.2113C25.334 46.3309 25.7644 47.7087 25.2623 49.4598Z" fill="white"/>
</g>
<defs>
<clipPath id="clip0_20_249">
<rect width="55" height="55" fill="white"/>
</clipPath>
</defs>
</svg>